<?xml version="1.0" standalone="no"?>
<!DOCTYPE svg PUBLIC "-//W3C//DTD SVG 20010904//EN"
 "http://www.w3.org/TR/2001/REC-SVG-20010904/DTD/svg10.dtd">
<svg version="1.0" xmlns="http://www.w3.org/2000/svg"
 width="512.000000pt" height="512.000000pt" viewBox="0 0 512.000000 512.000000"
 preserveAspectRatio="xMidYMid meet">
<metadata>
Created by potrace 1.14, written by Peter Selinger 2001-2017
</metadata>
<g transform="translate(0.000000,512.000000) scale(0.100000,-0.100000)"
fill="#000000" stroke="none">
<path d="M497 5113 c-2 -5 -3 -240 -2 -523 l0 -515 -78 -120 c-95 -146 -183
-316 -243 -472 -44 -114 -97 -285 -109 -354 -3 -19 -11 -54 -16 -79 -29 -123
-43 -287 -44 -490 0 -200 6 -278 34 -440 62 -353 194 -682 394 -980 53 -80
130 -184 156 -212 9 -9 50 -54 91 -100 386 -429 963 -732 1535 -803 28 -4 77
-10 110 -14 60 -8 468 -6 515 2 14 3 45 8 70 12 74 10 126 20 219 39 67 14
186 48 258 74 l80 28 84 -43 c98 -50 214 -89 318 -108 70 -12 289 -13 351 -1
174 32 333 100 463 198 l67 49 -34 37 c-19 20 -43 48 -54 62 -19 23 -20 23
-43 7 -196 -141 -361 -198 -569 -199 -411 0 -757 259 -876 658 -23 76 -27 109
-28 229 -1 160 3 194 39 302 91 272 305 487 576 577 111 37 139 41 299 40 127
-1 156 -4 235 -28 314 -95 550 -336 630 -646 27 -103 36 -281 20 -363 -31
-152 -79 -273 -150 -377 l-37 -55 39 -33 c21 -19 50 -42 64 -52 l26 -19 51 77
c128 196 182 384 177 627 -4 180 -34 298 -118 460 l-44 84 29 83 c16 46 44
144 62 218 36 146 46 200 63 355 10 90 10 408 1 505 -21 205 -71 430 -136 605
-52 141 -72 187 -132 305 -250 488 -647 883 -1137 1129 -136 68 -277 123 -421
165 -137 40 -196 54 -312 72 -19 3 -46 7 -60 10 -74 13 -184 19 -350 19 -192
-1 -278 -7 -415 -30 -16 -3 -46 -8 -65 -11 -178 -29 -448 -120 -663 -226
l-118 -58 -154 0 -155 0 0 165 0 165 -244 0 c-135 0 -247 -3 -249 -7z m328
-1066 l0 -907 -47 -1 c-27 0 -63 -1 -80 -2 l-33 -1 -3 900 c-1 494 0 904 2
909 2 6 39 10 82 10 l79 -1 0 -907z m1652 -250 l0 -1154 -1154 0 -1155 0 6 81
c2 45 7 99 10 121 3 22 8 54 10 70 20 146 77 361 139 520 35 91 146 315 156
315 3 0 6 -170 5 -377 0 -208 2 -384 4 -390 3 -10 203 -13 908 -12 l904 0 0
92 c1 102 1 692 0 720 0 15 -15 17 -166 17 l-165 0 1 128 c1 70 1 144 1 165
l-1 37 -165 0 -165 0 0 165 0 165 -165 0 -166 0 3 78 3 77 160 80 c294 148
634 240 931 253 l61 3 0 -1154z m376 1138 c6 -2 35 -6 62 -9 94 -11 325 -64
325 -75 0 -3 -134 -140 -298 -304 l-299 -299 0 344 c0 188 2 347 5 352 4 8
176 1 205 -9z m764 -232 l153 -75 -65 -63 c-36 -36 -65 -68 -65 -72 0 -4 25
-32 55 -62 l54 -54 79 76 c43 43 82 77 86 77 15 0 266 -201 274 -219 1 -3
-346 -354 -772 -780 l-773 -773 0 254 -1 253 499 500 c275 275 499 504 499
508 0 4 -25 32 -56 61 l-55 55 -428 -427 c-234 -235 -434 -433 -442 -440 -15
-11 -16 12 -15 240 l1 253 389 388 c326 325 392 387 410 381 11 -3 90 -39 173
-81z m-2466 -83 c1 -3 3 -337 3 -742 l2 -738 -83 0 -83 0 0 738 c0 406 2 741
4 743 6 6 156 6 157 -1z m335 -902 l1 -576 -61 -4 c-34 -2 -71 -2 -83 0 l-23
3 0 574 c0 397 3 574 11 577 6 2 43 3 82 3 l72 0 1 -577z m2891 397 c76 -90
153 -191 153 -202 0 -4 -205 -213 -455 -463 -250 -250 -455 -457 -455 -460 0
-3 25 -31 55 -63 l55 -57 446 446 c409 409 448 445 460 429 21 -28 97 -181
128 -256 l28 -66 -389 -389 -388 -389 -252 -1 c-139 -1 -253 0 -253 2 0 2 23
26 50 53 l50 50 -56 56 c-31 30 -59 55 -63 55 -3 0 -55 -49 -115 -109 l-108
-108 -249 0 c-137 0 -249 3 -249 6 0 9 1534 1541 1541 1538 3 -1 33 -33 66
-72z m-2560 -562 l0 -413 -84 0 -83 0 0 413 0 412 83 0 84 0 0 -412z m315 78
c15 -1 17 -23 16 -245 l0 -245 -75 -3 c-41 -2 -79 -1 -84 2 -5 3 -8 115 -8
247 l1 242 26 3 c24 3 64 2 124 -1z m2742 -458 c39 -153 62 -297 73 -444 l6
-86 -353 0 -352 0 299 299 c164 164 301 298 304 298 4 0 14 -30 23 -67z
m-2398 -1852 l1 -1153 -96 6 c-210 15 -385 51 -593 121 -124 42 -110 36 -288
123 -463 225 -842 601 -1077 1068 -102 205 -163 378 -207 595 -29 141 -33 167
-42 300 l-7 96 1154 -1 1154 -1 1 -1154z m2468 1084 c-2 -113 -16 -211 -60
-421 -9 -47 -46 -160 -55 -169 -6 -6 -15 -1 -25 14 -24 34 -155 135 -228 176
-108 60 -241 108 -336 122 -19 3 -54 8 -76 12 -65 12 -241 5 -328 -14 -44 -9
-116 -30 -160 -46 -78 -28 -225 -107 -254 -135 -7 -8 -18 -14 -23 -14 -20 0
-197 -189 -243 -260 -143 -217 -203 -467 -173 -725 16 -145 68 -295 144 -420
41 -68 118 -168 157 -204 32 -30 32 -37 4 -44 -13 -3 -75 -19 -138 -35 -64
-17 -136 -33 -160 -37 -25 -3 -70 -10 -100 -15 -30 -5 -98 -12 -151 -16 l-96
-6 0 1154 0 1155 1151 -1 1151 -1 -1 -70z"/>
<path d="M1155 2129 c-94 -35 -156 -120 -161 -218 -10 -227 265 -344 423 -179
64 67 85 165 52 252 -47 127 -188 192 -314 145z m141 -174 c21 -21 25 -32 21
-63 -14 -100 -157 -93 -157 8 0 73 84 106 136 55z"/>
<path d="M1511 1626 l-495 -495 57 -58 57 -58 496 496 497 497 -58 56 c-32 31
-58 56 -59 56 -1 0 -224 -222 -495 -494z"/>
<path d="M1832 1475 c-195 -58 -242 -317 -78 -432 54 -39 71 -45 136 -49 109
-6 212 68 244 176 55 184 -119 359 -302 305z m130 -185 c61 -76 -48 -175 -119
-108 -30 28 -30 78 -1 111 29 33 92 31 120 -3z"/>
<path d="M3966 1810 c-2 -3 -3 -41 -2 -85 l1 -80 -57 -28 c-134 -64 -208 -201
-186 -345 23 -148 144 -263 293 -277 79 -8 94 -13 133 -42 83 -62 79 -202 -7
-260 -96 -65 -221 -19 -254 92 l-12 41 -79 0 -78 1 4 -47 c10 -98 94 -212 186
-251 26 -11 49 -24 52 -30 4 -5 5 -45 4 -89 l-2 -80 84 0 84 0 0 88 0 87 48
22 c174 80 244 272 162 446 -45 95 -156 169 -273 182 -32 3 -66 9 -75 12 -39
14 -75 48 -92 86 -64 142 82 281 223 213 40 -20 87 -86 87 -124 0 -21 5 -22
84 -22 l84 0 -5 43 c-14 107 -89 208 -190 254 l-53 24 0 89 0 88 -81 -1 c-44
-1 -82 -4 -83 -7z"/>
<path d="M3305 1150 c-1 -3 -2 -40 -2 -82 l-1 -78 84 0 84 0 0 83 0 83 -81 0
c-44 0 -82 -3 -84 -6z"/>
<path d="M4629 1156 c-1 -1 -2 -38 -3 -83 l-2 -83 83 0 83 0 0 83 0 83 -80 0
c-44 0 -81 0 -81 0z"/>
</g>
</svg>
